<svg width="1414" height="310" viewBox="0 0 1414 310" fill="none" xmlns="http://www.w3.org/2000/svg">
<g clip-path="url(#clip0_108_24)">
<path d="M374.72 252.76C356.8 252.76 341.027 248.653 327.4 240.44C313.773 232.04 303.133 220.093 295.48 204.6C287.827 189.107 284 170.627 284 149.16C284 127.88 287.733 109.493 295.2 94C302.853 78.32 313.493 66.28 327.12 57.88C340.747 49.2933 356.707 45 375 45C399.64 45 418.773 51.16 432.4 63.48C446.027 75.8 454.893 92.88 459 114.72L427.36 116.4C424.747 102.773 419.147 92.1333 410.56 84.48C401.973 76.64 390.12 72.72 375 72.72C362.867 72.72 352.32 75.8 343.36 81.96C334.587 88.12 327.68 96.8933 322.64 108.28C317.787 119.667 315.36 133.293 315.36 149.16C315.36 165.027 317.787 178.653 322.64 190.04C327.68 201.427 334.68 210.107 343.64 216.08C352.6 222.053 362.96 225.04 374.72 225.04C390.773 225.04 403.187 220.84 411.96 212.44C420.92 203.853 426.52 192.093 428.76 177.16L460.4 178.84C457.973 193.96 453.12 207.027 445.84 218.04C438.56 229.053 428.947 237.64 417 243.8C405.053 249.773 390.96 252.76 374.72 252.76Z" fill="black"/>
<path d="M488.982 248.28V99.3198H516.142L517.262 138.8L514.742 137.96C516.795 124.52 520.902 114.72 527.062 108.56C533.409 102.4 541.902 99.3198 552.542 99.3198H566.822V125.92H552.542C545.075 125.92 538.822 127.133 533.782 129.56C528.742 131.987 524.915 135.72 522.302 140.76C519.875 145.8 518.662 152.333 518.662 160.36V248.28H488.982Z" fill="black"/>
<path d="M648.166 251.64C633.606 251.64 621.006 248.467 610.366 242.12C599.913 235.773 591.793 226.72 586.006 214.96C580.406 203.2 577.606 189.48 577.606 173.8C577.606 158.12 580.406 144.493 586.006 132.92C591.793 121.16 599.913 112.107 610.366 105.76C620.82 99.2267 633.14 95.96 647.326 95.96C660.766 95.96 672.62 99.1333 682.886 105.48C693.153 111.64 701.086 120.6 706.686 132.36C712.473 144.12 715.366 158.307 715.366 174.92V182.48H608.406C609.153 197.04 612.98 207.96 619.886 215.24C626.98 222.52 636.5 226.16 648.446 226.16C657.22 226.16 664.5 224.107 670.286 220C676.073 215.893 680.086 210.387 682.326 203.48L713.126 205.44C709.206 219.253 701.46 230.453 689.886 239.04C678.5 247.44 664.593 251.64 648.166 251.64ZM608.406 160.08H684.006C683.073 146.827 679.246 137.027 672.526 130.68C665.993 124.333 657.593 121.16 647.326 121.16C636.686 121.16 627.913 124.52 621.006 131.24C614.286 137.773 610.086 147.387 608.406 160.08Z" fill="black"/>
<path d="M805.64 251.64C791.08 251.64 778.48 248.467 767.84 242.12C757.387 235.773 749.267 226.72 743.48 214.96C737.88 203.2 735.08 189.48 735.08 173.8C735.08 158.12 737.88 144.493 743.48 132.92C749.267 121.16 757.387 112.107 767.84 105.76C778.293 99.2267 790.613 95.96 804.8 95.96C818.24 95.96 830.093 99.1333 840.36 105.48C850.627 111.64 858.56 120.6 864.16 132.36C869.947 144.12 872.84 158.307 872.84 174.92V182.48H765.88C766.627 197.04 770.453 207.96 777.36 215.24C784.453 222.52 793.973 226.16 805.92 226.16C814.693 226.16 821.973 224.107 827.76 220C833.547 215.893 837.56 210.387 839.8 203.48L870.6 205.44C866.68 219.253 858.933 230.453 847.36 239.04C835.973 247.44 822.067 251.64 805.64 251.64ZM765.88 160.08H841.48C840.547 146.827 836.72 137.027 830 130.68C823.467 124.333 815.067 121.16 804.8 121.16C794.16 121.16 785.387 124.52 778.48 131.24C771.76 137.773 767.56 147.387 765.88 160.08Z" fill="black"/>
<path d="M954.714 251.64C942.02 251.64 930.914 248.467 921.394 242.12C912.06 235.773 904.874 226.813 899.834 215.24C894.98 203.48 892.554 189.667 892.554 173.8C892.554 157.933 895.074 144.213 900.114 132.64C905.154 120.88 912.34 111.827 921.674 105.48C931.007 99.1333 942.02 95.96 954.714 95.96C964.98 95.96 974.127 98.1067 982.154 102.4C990.18 106.693 996.247 112.667 1000.35 120.32V49.48H1030.03V148.88V248.28H1002.31L1001.47 225.88C997.367 233.907 991.114 240.253 982.714 244.92C974.5 249.4 965.167 251.64 954.714 251.64ZM962.554 225.88C970.58 225.88 977.394 223.827 982.994 219.72C988.594 215.613 992.887 209.64 995.874 201.8C998.86 193.96 1000.35 184.627 1000.35 173.8C1000.35 162.6 998.86 153.173 995.874 145.52C992.887 137.68 988.594 131.8 982.994 127.88C977.394 123.773 970.58 121.72 962.554 121.72C950.607 121.72 941.087 126.387 933.994 135.72C926.9 144.867 923.354 157.56 923.354 173.8C923.354 189.853 926.9 202.547 933.994 211.88C941.087 221.213 950.607 225.88 962.554 225.88Z" fill="black"/>
<path fill-rule="evenodd" clip-rule="evenodd" d="M156.683 52.8912C156.683 47.7784 153.949 43.6984 150.153 42.8682L50.8845 27.8033C44.4474 26.7921 40.8385 26.5817 34.4022 28.0766C21.948 31.5345 19.4689 32.5516 7.16796 36.5203C1.74137 37.8567 0 41.8659 0 47.1609L0.111367 253.189C0.111367 258.049 3.3005 261.218 7.66406 262.676C14.0626 264.863 21.4027 267.262 28.5807 269.489C33.5011 271.038 38.8467 271.038 45.3161 270.664C52.231 270.259 92.7685 263.617 149.596 256.044C154.101 255.447 156.663 251.772 156.663 248.087L156.713 52.8912H156.683ZM132.658 219.425C134.521 219.222 139.148 217.127 139.148 211.639V86.9491C139.279 84.4788 137.528 79.9533 132.445 79.5382L75.861 71.5097C70.7786 71.2971 68.0552 74.9924 68.0552 78.4043V221.055C68.2678 223.525 70.161 227.362 75.2333 226.542L132.658 219.425Z" fill="black"/>
</g>
<mask id="path-7-outside-1_108_24" maskUnits="userSpaceOnUse" x="1052" y="102" width="346" height="153" fill="black">
<rect fill="white" x="1052" y="102" width="346" height="153"/>
<path d="M1119.36 250.909C1106.76 250.909 1095.7 247.909 1086.18 241.909C1076.73 235.909 1069.33 227.515 1064 216.727C1058.73 205.939 1056.09 193.333 1056.09 178.909C1056.09 164.364 1058.73 151.667 1064 140.818C1069.33 129.97 1076.73 121.545 1086.18 115.545C1095.7 109.545 1106.76 106.545 1119.36 106.545C1131.97 106.545 1143 109.545 1152.45 115.545C1161.97 121.545 1169.36 129.97 1174.64 140.818C1179.97 151.667 1182.64 164.364 1182.64 178.909C1182.64 193.333 1179.97 205.939 1174.64 216.727C1169.36 227.515 1161.97 235.909 1152.45 241.909C1143 247.909 1131.97 250.909 1119.36 250.909ZM1119.36 231.636C1128.94 231.636 1136.82 229.182 1143 224.273C1149.18 219.364 1153.76 212.909 1156.73 204.909C1159.7 196.909 1161.18 188.242 1161.18 178.909C1161.18 169.576 1159.7 160.879 1156.73 152.818C1153.76 144.758 1149.18 138.242 1143 133.273C1136.82 128.303 1128.94 125.818 1119.36 125.818C1109.79 125.818 1101.91 128.303 1095.73 133.273C1089.55 138.242 1084.97 144.758 1082 152.818C1079.03 160.879 1077.55 169.576 1077.55 178.909C1077.55 188.242 1079.03 196.909 1082 204.909C1084.97 212.909 1089.55 219.364 1095.73 224.273C1101.91 229.182 1109.79 231.636 1119.36 231.636ZM1210.27 248V108.364H1230.99V130.182H1232.81C1235.72 122.727 1240.42 116.939 1246.9 112.818C1253.39 108.636 1261.18 106.545 1270.27 106.545C1279.48 106.545 1287.15 108.636 1293.27 112.818C1299.45 116.939 1304.27 122.727 1307.72 130.182H1309.18C1312.75 122.97 1318.11 117.242 1325.27 113C1332.42 108.697 1340.99 106.545 1350.99 106.545C1363.48 106.545 1373.69 110.455 1381.63 118.273C1389.57 126.03 1393.54 138.121 1393.54 154.545V248H1372.08V154.545C1372.08 144.242 1369.27 136.879 1363.63 132.455C1357.99 128.03 1351.36 125.818 1343.72 125.818C1333.9 125.818 1326.3 128.788 1320.9 134.727C1315.51 140.606 1312.81 148.061 1312.81 157.091V248H1290.99V152.364C1290.99 144.424 1288.42 138.03 1283.27 133.182C1278.11 128.273 1271.48 125.818 1263.36 125.818C1257.78 125.818 1252.57 127.303 1247.72 130.273C1242.93 133.242 1239.05 137.364 1236.08 142.636C1233.18 147.848 1231.72 153.879 1231.72 160.727V248H1210.27Z"/>
</mask>
<path d="M1119.36 250.909C1106.76 250.909 1095.7 247.909 1086.18 241.909C1076.73 235.909 1069.33 227.515 1064 216.727C1058.73 205.939 1056.09 193.333 1056.09 178.909C1056.09 164.364 1058.73 151.667 1064 140.818C1069.33 129.97 1076.73 121.545 1086.18 115.545C1095.7 109.545 1106.76 106.545 1119.36 106.545C1131.97 106.545 1143 109.545 1152.45 115.545C1161.97 121.545 1169.36 129.97 1174.64 140.818C1179.97 151.667 1182.64 164.364 1182.64 178.909C1182.64 193.333 1179.97 205.939 1174.64 216.727C1169.36 227.515 1161.97 235.909 1152.45 241.909C1143 247.909 1131.97 250.909 1119.36 250.909ZM1119.36 231.636C1128.94 231.636 1136.82 229.182 1143 224.273C1149.18 219.364 1153.76 212.909 1156.73 204.909C1159.7 196.909 1161.18 188.242 1161.18 178.909C1161.18 169.576 1159.7 160.879 1156.73 152.818C1153.76 144.758 1149.18 138.242 1143 133.273C1136.82 128.303 1128.94 125.818 1119.36 125.818C1109.79 125.818 1101.91 128.303 1095.73 133.273C1089.55 138.242 1084.97 144.758 1082 152.818C1079.03 160.879 1077.55 169.576 1077.55 178.909C1077.55 188.242 1079.03 196.909 1082 204.909C1084.97 212.909 1089.55 219.364 1095.73 224.273C1101.91 229.182 1109.79 231.636 1119.36 231.636ZM1210.27 248V108.364H1230.99V130.182H1232.81C1235.72 122.727 1240.42 116.939 1246.9 112.818C1253.39 108.636 1261.18 106.545 1270.27 106.545C1279.48 106.545 1287.15 108.636 1293.27 112.818C1299.45 116.939 1304.27 122.727 1307.72 130.182H1309.18C1312.75 122.97 1318.11 117.242 1325.27 113C1332.42 108.697 1340.99 106.545 1350.99 106.545C1363.48 106.545 1373.69 110.455 1381.63 118.273C1389.57 126.03 1393.54 138.121 1393.54 154.545V248H1372.08V154.545C1372.08 144.242 1369.27 136.879 1363.63 132.455C1357.99 128.03 1351.36 125.818 1343.72 125.818C1333.9 125.818 1326.3 128.788 1320.9 134.727C1315.51 140.606 1312.81 148.061 1312.81 157.091V248H1290.99V152.364C1290.99 144.424 1288.42 138.03 1283.27 133.182C1278.11 128.273 1271.48 125.818 1263.36 125.818C1257.78 125.818 1252.57 127.303 1247.72 130.273C1242.93 133.242 1239.05 137.364 1236.08 142.636C1233.18 147.848 1231.72 153.879 1231.72 160.727V248H1210.27Z" fill="#00FF62"/>
<path d="M1086.18 241.909L1084.04 245.286L1084.05 245.293L1086.18 241.909ZM1064 216.727L1060.41 218.484L1060.41 218.492L1060.41 218.5L1064 216.727ZM1064 140.818L1060.41 139.053L1060.41 139.062L1060.4 139.07L1064 140.818ZM1086.18 115.545L1084.05 112.162L1084.04 112.168L1086.18 115.545ZM1152.45 115.545L1150.31 118.923L1150.32 118.929L1152.45 115.545ZM1174.64 140.818L1171.04 142.567L1171.04 142.575L1171.05 142.583L1174.64 140.818ZM1174.64 216.727L1171.05 214.955L1171.05 214.963L1171.04 214.971L1174.64 216.727ZM1152.45 241.909L1150.32 238.526L1150.31 238.532L1152.45 241.909ZM1143 224.273L1140.51 221.14V221.14L1143 224.273ZM1156.73 204.909L1160.48 206.301H1160.48L1156.73 204.909ZM1156.73 152.818L1160.48 151.435V151.435L1156.73 152.818ZM1143 133.273L1145.51 130.155V130.155L1143 133.273ZM1095.73 133.273L1093.22 130.155V130.155L1095.73 133.273ZM1082 152.818L1078.25 151.435V151.435L1082 152.818ZM1082 204.909L1078.25 206.301V206.301L1082 204.909ZM1095.73 224.273L1098.21 221.14V221.14L1095.73 224.273ZM1119.36 250.909V246.909C1107.42 246.909 1097.12 244.076 1088.32 238.526L1086.18 241.909L1084.05 245.293C1094.28 251.743 1106.1 254.909 1119.36 254.909V250.909ZM1086.18 241.909L1088.33 238.532C1079.54 232.954 1072.62 225.137 1067.59 214.955L1064 216.727L1060.41 218.5C1066.05 229.894 1073.92 238.864 1084.04 245.286L1086.18 241.909ZM1064 216.727L1067.59 214.971C1062.64 204.829 1060.09 192.846 1060.09 178.909H1056.09H1052.09C1052.09 193.821 1054.82 207.05 1060.41 218.484L1064 216.727ZM1056.09 178.909H1060.09C1060.09 164.846 1062.64 152.77 1067.6 142.567L1064 140.818L1060.4 139.07C1054.82 150.564 1052.09 163.881 1052.09 178.909H1056.09ZM1064 140.818L1067.59 142.583C1072.63 132.34 1079.54 124.497 1088.33 118.923L1086.18 115.545L1084.04 112.168C1073.91 118.594 1066.04 127.599 1060.41 139.053L1064 140.818ZM1086.18 115.545L1088.32 118.929C1097.12 113.379 1107.42 110.545 1119.36 110.545V106.545V102.545C1106.1 102.545 1094.28 105.712 1084.05 112.162L1086.18 115.545ZM1119.36 106.545V110.545C1131.31 110.545 1141.58 113.379 1150.31 118.923L1152.45 115.545L1154.6 112.168C1144.42 105.712 1132.63 102.545 1119.36 102.545V106.545ZM1152.45 115.545L1150.32 118.929C1159.16 124.502 1166.07 132.339 1171.04 142.567L1174.64 140.818L1178.23 139.07C1172.66 127.601 1164.78 118.589 1154.59 112.162L1152.45 115.545ZM1174.64 140.818L1171.05 142.583C1176.06 152.782 1178.64 164.853 1178.64 178.909H1182.64H1186.64C1186.64 163.875 1183.88 150.552 1178.23 139.053L1174.64 140.818ZM1182.64 178.909H1178.64C1178.64 192.839 1176.06 204.817 1171.05 214.955L1174.64 216.727L1178.22 218.5C1183.88 207.062 1186.64 193.827 1186.64 178.909H1182.64ZM1174.64 216.727L1171.04 214.971C1166.07 225.138 1159.17 232.949 1150.32 238.526L1152.45 241.909L1154.59 245.293C1164.77 238.869 1172.65 229.892 1178.23 218.484L1174.64 216.727ZM1152.45 241.909L1150.31 238.532C1141.58 244.075 1131.31 246.909 1119.36 246.909V250.909V254.909C1132.63 254.909 1144.42 251.743 1154.6 245.286L1152.45 241.909ZM1119.36 231.636V235.636C1129.64 235.636 1138.46 232.988 1145.49 227.405L1143 224.273L1140.51 221.14C1135.18 225.375 1128.23 227.636 1119.36 227.636V231.636ZM1143 224.273L1145.49 227.405C1152.29 222.005 1157.27 214.928 1160.48 206.301L1156.73 204.909L1152.98 203.517C1150.24 210.89 1146.08 216.722 1140.51 221.14L1143 224.273ZM1156.73 204.909L1160.48 206.301C1163.63 197.816 1165.18 188.673 1165.18 178.909H1161.18H1157.18C1157.18 187.812 1155.77 196.002 1152.98 203.517L1156.73 204.909ZM1161.18 178.909H1165.18C1165.18 169.145 1163.63 159.976 1160.48 151.435L1156.73 152.818L1152.97 154.201C1155.77 161.782 1157.18 170.007 1157.18 178.909H1161.18ZM1156.73 152.818L1160.48 151.435C1157.28 142.753 1152.3 135.617 1145.51 130.155L1143 133.273L1140.49 136.39C1146.06 140.868 1150.23 146.763 1152.97 154.201L1156.73 152.818ZM1143 133.273L1145.51 130.155C1138.48 124.503 1129.66 121.818 1119.36 121.818V125.818V129.818C1128.22 129.818 1135.16 132.103 1140.49 136.39L1143 133.273ZM1119.36 125.818V121.818C1109.07 121.818 1100.25 124.503 1093.22 130.155L1095.73 133.273L1098.23 136.39C1103.57 132.103 1110.5 129.818 1119.36 129.818V125.818ZM1095.73 133.273L1093.22 130.155C1086.43 135.617 1081.45 142.753 1078.25 151.435L1082 152.818L1085.75 154.201C1088.49 146.763 1092.66 140.868 1098.23 136.39L1095.73 133.273ZM1082 152.818L1078.25 151.435C1075.1 159.976 1073.55 169.145 1073.55 178.909H1077.55H1081.55C1081.55 170.007 1082.96 161.782 1085.75 154.201L1082 152.818ZM1077.55 178.909H1073.55C1073.55 188.673 1075.1 197.816 1078.25 206.301L1082 204.909L1085.75 203.517C1082.96 196.002 1081.55 187.812 1081.55 178.909H1077.55ZM1082 204.909L1078.25 206.301C1081.45 214.928 1086.44 222.005 1093.24 227.405L1095.73 224.273L1098.21 221.14C1092.65 216.722 1088.49 210.89 1085.75 203.517L1082 204.909ZM1095.73 224.273L1093.24 227.405C1100.27 232.988 1109.08 235.636 1119.36 235.636V231.636V227.636C1110.49 227.636 1103.55 225.375 1098.21 221.14L1095.73 224.273ZM1210.27 248H1206.27V252H1210.27V248ZM1210.27 108.364V104.364H1206.27V108.364H1210.27ZM1230.99 108.364H1234.99V104.364H1230.99V108.364ZM1230.99 130.182H1226.99V134.182H1230.99V130.182ZM1232.81 130.182V134.182H1235.54L1236.54 131.636L1232.81 130.182ZM1246.9 112.818L1249.05 116.194L1249.06 116.187L1249.07 116.18L1246.9 112.818ZM1293.27 112.818L1291.01 116.121L1291.03 116.134L1291.05 116.146L1293.27 112.818ZM1307.72 130.182L1304.09 131.864L1305.17 134.182H1307.72V130.182ZM1309.18 130.182V134.182H1311.66L1312.76 131.959L1309.18 130.182ZM1325.27 113L1327.31 116.44L1327.32 116.434L1327.33 116.427L1325.27 113ZM1381.63 118.273L1378.82 121.123L1378.83 121.128L1378.83 121.134L1381.63 118.273ZM1393.54 248V252H1397.54V248H1393.54ZM1372.08 248H1368.08V252H1372.08V248ZM1363.63 132.455L1361.16 135.601V135.601L1363.63 132.455ZM1320.9 134.727L1323.85 137.432L1323.86 137.424L1323.86 137.416L1320.9 134.727ZM1312.81 248V252H1316.81V248H1312.81ZM1290.99 248H1286.99V252H1290.99V248ZM1283.27 133.182L1280.51 136.078L1280.52 136.086L1280.52 136.095L1283.27 133.182ZM1247.72 130.273L1245.63 126.862L1245.62 126.868L1245.61 126.873L1247.72 130.273ZM1236.08 142.636L1232.6 140.673L1232.6 140.68L1232.59 140.687L1236.08 142.636ZM1231.72 248V252H1235.72V248H1231.72ZM1210.27 248H1214.27V108.364H1210.27H1206.27V248H1210.27ZM1210.27 108.364V112.364H1230.99V108.364V104.364H1210.27V108.364ZM1230.99 108.364H1226.99V130.182H1230.99H1234.99V108.364H1230.99ZM1230.99 130.182V134.182H1232.81V130.182V126.182H1230.99V130.182ZM1232.81 130.182L1236.54 131.636C1239.15 124.939 1243.31 119.839 1249.05 116.194L1246.9 112.818L1244.76 109.442C1237.52 114.039 1232.29 120.516 1229.09 128.728L1232.81 130.182ZM1246.9 112.818L1249.07 116.18C1254.8 112.484 1261.81 110.545 1270.27 110.545V106.545V102.545C1260.55 102.545 1251.97 104.788 1244.73 109.457L1246.9 112.818ZM1270.27 106.545V110.545C1278.87 110.545 1285.7 112.493 1291.01 116.121L1293.27 112.818L1295.52 109.515C1288.59 104.78 1280.09 102.545 1270.27 102.545V106.545ZM1293.27 112.818L1291.05 116.146C1296.55 119.817 1300.91 125.004 1304.09 131.864L1307.72 130.182L1311.35 128.5C1307.62 120.45 1302.34 114.062 1295.49 109.49L1293.27 112.818ZM1307.72 130.182V134.182H1309.18V130.182V126.182H1307.72V130.182ZM1309.18 130.182L1312.76 131.959C1315.98 125.462 1320.8 120.302 1327.31 116.44L1325.27 113L1323.23 109.56C1315.43 114.182 1309.52 120.477 1305.59 128.405L1309.18 130.182ZM1325.27 113L1327.33 116.427C1333.74 112.567 1341.58 110.545 1350.99 110.545V106.545V102.545C1340.41 102.545 1331.09 104.827 1323.2 109.573L1325.27 113ZM1350.99 106.545V110.545C1362.57 110.545 1371.73 114.133 1378.82 121.123L1381.63 118.273L1384.44 115.423C1375.66 106.776 1364.39 102.545 1350.99 102.545V106.545ZM1381.63 118.273L1378.83 121.134C1385.7 127.842 1389.54 138.683 1389.54 154.545H1393.54H1397.54C1397.54 137.559 1393.44 124.218 1384.43 115.412L1381.63 118.273ZM1393.54 154.545H1389.54V248H1393.54H1397.54V154.545H1393.54ZM1393.54 248V244H1372.08V248V252H1393.54V248ZM1372.08 248H1376.08V154.545H1372.08H1368.08V248H1372.08ZM1372.08 154.545H1376.08C1376.08 143.577 1373.07 134.781 1366.1 129.308L1363.63 132.455L1361.16 135.601C1365.46 138.977 1368.08 144.908 1368.08 154.545H1372.08ZM1363.63 132.455L1366.1 129.308C1359.71 124.293 1352.19 121.818 1343.72 121.818V125.818V129.818C1350.52 129.818 1356.28 131.767 1361.16 135.601L1363.63 132.455ZM1343.72 125.818V121.818C1333.05 121.818 1324.26 125.081 1317.94 132.038L1320.9 134.727L1323.86 137.416C1328.33 132.494 1334.76 129.818 1343.72 129.818V125.818ZM1320.9 134.727L1317.96 132.023C1311.79 138.738 1308.81 147.201 1308.81 157.091H1312.81H1316.81C1316.81 148.92 1319.22 142.474 1323.85 137.432L1320.9 134.727ZM1312.81 157.091H1308.81V248H1312.81H1316.81V157.091H1312.81ZM1312.81 248V244H1290.99V248V252H1312.81V248ZM1290.99 248H1294.99V152.364H1290.99H1286.99V248H1290.99ZM1290.99 152.364H1294.99C1294.99 143.47 1292.06 135.97 1286.01 130.269L1283.27 133.182L1280.52 136.095C1284.77 140.091 1286.99 145.378 1286.99 152.364H1290.99ZM1283.27 133.182L1286.03 130.286C1280.02 124.567 1272.35 121.818 1263.36 121.818V125.818V129.818C1270.61 129.818 1276.21 131.978 1280.51 136.078L1283.27 133.182ZM1263.36 125.818V121.818C1257.03 121.818 1251.1 123.515 1245.63 126.862L1247.72 130.273L1249.81 133.684C1254.04 131.091 1258.53 129.818 1263.36 129.818V125.818ZM1247.72 130.273L1245.61 126.873C1240.21 130.224 1235.87 134.858 1232.6 140.673L1236.08 142.636L1239.57 144.599C1242.23 139.869 1245.66 136.26 1249.83 133.672L1247.72 130.273ZM1236.08 142.636L1232.59 140.687C1229.3 146.578 1227.72 153.298 1227.72 160.727H1231.72H1235.72C1235.72 154.46 1237.05 149.119 1239.58 144.586L1236.08 142.636ZM1231.72 160.727H1227.72V248H1231.72H1235.72V160.727H1231.72ZM1231.72 248V244H1210.27V248V252H1231.72V248Z" fill="#00FF62" mask="url(#path-7-outside-1_108_24)"/>
<defs>
<clipPath id="clip0_108_24">
<rect width="1031" height="244" fill="white" transform="translate(0 27)"/>
</clipPath>
</defs>
</svg>
